<mxfile host="app.diagrams.net" modified="2022-02-28T10:30:31.435Z" agent="5.0 (Windows NT 10.0; Win64; x64) AppleWebKit/537.36 (KHTML, like Gecko) Chrome/98.0.4758.102 Safari/537.36" etag="Ki_VS2oQWOU0GpPCCqE0" version="16.6.4" type="github">
  <diagram id="pktmsEUWRkQnWgmp27aI" name="Page-1">
    <mxGraphModel dx="649" dy="348" grid="1" gridSize="10" guides="1" tooltips="1" connect="1" arrows="1" fold="1" page="1" pageScale="1" pageWidth="827" pageHeight="1169" math="0" shadow="0">
      <root>
        <mxCell id="0" />
        <mxCell id="1" parent="0" />
        <mxCell id="Z-F-8DJSNIKzANeEtAPL-2" value="" style="shape=actor;whiteSpace=wrap;html=1;fillColor=#e6d0de;strokeColor=#996185;gradientColor=#d5739d;fontFamily=Times New Roman;" vertex="1" parent="1">
          <mxGeometry x="200" y="110" width="40" height="60" as="geometry" />
        </mxCell>
        <mxCell id="Z-F-8DJSNIKzANeEtAPL-4" value="&lt;font face=&quot;Comic Sans MS&quot;&gt;User&lt;/font&gt;" style="text;html=1;strokeColor=none;fillColor=none;align=center;verticalAlign=middle;whiteSpace=wrap;rounded=0;fontFamily=Times New Roman;" vertex="1" parent="1">
          <mxGeometry x="190" y="160" width="60" height="30" as="geometry" />
        </mxCell>
        <mxCell id="Z-F-8DJSNIKzANeEtAPL-5" value="" style="whiteSpace=wrap;html=1;aspect=fixed;fontFamily=Comic Sans MS;" vertex="1" parent="1">
          <mxGeometry x="300" y="40" width="260" height="260" as="geometry" />
        </mxCell>
        <mxCell id="Z-F-8DJSNIKzANeEtAPL-6" value="Currency&lt;br&gt;converter" style="text;html=1;strokeColor=none;fillColor=none;align=center;verticalAlign=middle;whiteSpace=wrap;rounded=0;fontFamily=Comic Sans MS;" vertex="1" parent="1">
          <mxGeometry x="300" y="40" width="60" height="30" as="geometry" />
        </mxCell>
        <mxCell id="Z-F-8DJSNIKzANeEtAPL-7" value="" style="ellipse;whiteSpace=wrap;html=1;fontFamily=Comic Sans MS;" vertex="1" parent="1">
          <mxGeometry x="370" y="110" width="120" height="80" as="geometry" />
        </mxCell>
        <mxCell id="Z-F-8DJSNIKzANeEtAPL-8" value="Convert&amp;nbsp;&lt;br&gt;currency" style="text;html=1;strokeColor=none;fillColor=none;align=center;verticalAlign=middle;whiteSpace=wrap;rounded=0;fontFamily=Comic Sans MS;" vertex="1" parent="1">
          <mxGeometry x="400" y="135" width="60" height="30" as="geometry" />
        </mxCell>
        <mxCell id="Z-F-8DJSNIKzANeEtAPL-12" value="" style="curved=1;endArrow=classic;html=1;rounded=0;fontFamily=Comic Sans MS;entryX=0.083;entryY=0.5;entryDx=0;entryDy=0;entryPerimeter=0;" edge="1" parent="1" source="Z-F-8DJSNIKzANeEtAPL-2" target="Z-F-8DJSNIKzANeEtAPL-7">
          <mxGeometry width="50" height="50" relative="1" as="geometry">
            <mxPoint x="450" y="200" as="sourcePoint" />
            <mxPoint x="500" y="150" as="targetPoint" />
            <Array as="points">
              <mxPoint x="290" y="180" />
              <mxPoint x="320" y="180" />
              <mxPoint x="390" y="170" />
              <mxPoint x="300" y="150" />
              <mxPoint x="370" y="150" />
              <mxPoint x="310" y="150" />
            </Array>
          </mxGeometry>
        </mxCell>
      </root>
    </mxGraphModel>
  </diagram>
</mxfile>
